<svg width="32" height="32" viewBox="0 0 32 32" fill="none" xmlns="http://www.w3.org/2000/svg">
<path fill-rule="evenodd" clip-rule="evenodd" d="M16 32C24.8366 32 32 24.8366 32 16C32 7.16344 24.8366 0 16 0C7.16344 0 0 7.16344 0 16C0 24.8366 7.16344 32 16 32Z" fill="#1070CA"/>
<path d="M12.9033 10.0469H14.2227V17.0947C14.2227 18.0472 13.9355 18.7923 13.3613 19.3301C12.7917 19.8678 12.0306 20.1367 11.0781 20.1367C10.0892 20.1367 9.31901 19.8838 8.76758 19.3779C8.21615 18.8721 7.94043 18.1634 7.94043 17.252H9.25293C9.25293 17.8216 9.40788 18.266 9.71777 18.585C10.0322 18.904 10.4857 19.0635 11.0781 19.0635C11.6204 19.0635 12.0579 18.8926 12.3906 18.5508C12.7279 18.209 12.8988 17.7305 12.9033 17.1152V10.0469ZM23.7793 16.8418C23.6562 17.8945 23.2666 18.708 22.6104 19.2822C21.9587 19.8519 21.0905 20.1367 20.0059 20.1367C18.8301 20.1367 17.8867 19.7152 17.1758 18.8721C16.4694 18.029 16.1162 16.901 16.1162 15.4883V14.5312C16.1162 13.6061 16.2803 12.7926 16.6084 12.0908C16.9411 11.389 17.4105 10.8512 18.0166 10.4775C18.6227 10.0993 19.3245 9.91016 20.1221 9.91016C21.1794 9.91016 22.027 10.2064 22.665 10.7988C23.3031 11.3867 23.6745 12.2025 23.7793 13.2461H22.46C22.346 12.4531 22.0977 11.8789 21.7148 11.5234C21.3366 11.168 20.8057 10.9902 20.1221 10.9902C19.2835 10.9902 18.625 11.3001 18.1465 11.9199C17.6725 12.5397 17.4355 13.4215 17.4355 14.5654V15.5293C17.4355 16.6094 17.6611 17.4684 18.1123 18.1064C18.5635 18.7445 19.1947 19.0635 20.0059 19.0635C20.735 19.0635 21.2933 18.8994 21.6807 18.5713C22.0726 18.2386 22.3324 17.6621 22.46 16.8418H23.7793Z" fill="white"/>
</svg>
