<svg width="17" height="21" viewBox="0 0 17 21" fill="none" xmlns="http://www.w3.org/2000/svg">
<mask id="mask0" mask-type="alpha" maskUnits="userSpaceOnUse" x="0" y="0" width="17" height="21">
<path fill-rule="evenodd" clip-rule="evenodd" d="M14.3855 14.002V8.99949C14.3855 5.92795 12.7547 3.35667 9.88329 2.67633V1.99599C9.88329 1.16557 9.21295 0.495239 8.38254 0.495239C7.55212 0.495239 6.88179 1.16557 6.88179 1.99599V2.67633C4.02036 3.35667 2.37954 5.91795 2.37954 8.99949V14.002L0.37854 16.003V17.0035H16.3865V16.003L14.3855 14.002ZM8.38254 20.005C9.48309 20.005 10.3835 19.1045 10.3835 18.004H6.38154C6.38154 19.1045 7.28199 20.005 8.38254 20.005ZM4.38054 15.0025H12.3845V8.99949C12.3845 6.51825 10.8738 4.49724 8.38254 4.49724C5.89129 4.49724 4.38054 6.51825 4.38054 8.99949V15.0025Z" fill="white"/>
</mask>
<g mask="url(#mask0)">
<rect x="-4" y="-2" width="24" height="24" fill="white"/>
</g>
</svg>
