<svg width="18" height="21" viewBox="0 0 18 21" fill="none" xmlns="http://www.w3.org/2000/svg">
<mask id="mask0" mask-type="alpha" maskUnits="userSpaceOnUse" x="0" y="0" width="18" height="21">
<path fill-rule="evenodd" clip-rule="evenodd" d="M8.56499 17.5163V20.6483L9.80908 20.048C14.2722 17.8991 17.265 13.5665 17.265 9.26C17.265 4.7012 13.5588 0.994995 8.99999 0.994995C4.44119 0.994995 0.734985 4.7012 0.734985 9.26C0.734985 13.6709 4.20629 17.2901 8.56499 17.5163ZM2.47499 9.26C2.47499 5.6582 5.39819 2.735 8.99999 2.735C12.6018 2.735 15.525 5.6582 15.525 9.26C15.525 12.4964 13.4718 15.785 10.305 17.786V15.785H8.99999C5.39819 15.785 2.47499 12.8618 2.47499 9.26ZM9.86999 12.74V14.48H8.12999V12.74H9.86999ZM9.67027 8.66985C8.94963 9.22223 8.12998 9.85049 8.12998 11.435H9.86999C9.86999 10.482 10.4886 9.94143 11.1234 9.38661C11.7927 8.80178 12.48 8.20113 12.48 7.085C12.48 5.16229 10.9227 3.605 8.99998 3.605C7.07729 3.605 5.51999 5.16229 5.51999 7.085H7.25998C7.25998 6.128 8.04298 5.345 8.99998 5.345C9.95699 5.345 10.74 6.128 10.74 7.085C10.74 7.84991 10.2356 8.23653 9.67027 8.66985Z" fill="white"/>
</mask>
<g mask="url(#mask0)">
<rect x="-3" y="-1" width="24" height="24" fill="#66788A"/>
</g>
</svg>
