<svg width="20" height="14" viewBox="0 0 20 14" fill="none" xmlns="http://www.w3.org/2000/svg">
<mask id="mask0" mask-type="alpha" maskUnits="userSpaceOnUse" x="0" y="0" width="20" height="14">
<path fill-rule="evenodd" clip-rule="evenodd" d="M7.11339 7.00002C8.9524 7.00002 10.4484 5.50403 10.4484 3.66502C10.4484 1.826 8.9524 0.330017 7.11339 0.330017C5.27438 0.330017 3.77839 1.826 3.77839 3.66502C3.77839 5.50403 5.27438 7.00002 7.11339 7.00002ZM0.44339 12.0025C0.44339 9.78236 4.8837 8.66752 7.11339 8.66752C9.34308 8.66752 13.7834 9.78236 13.7834 12.0025V13.67H0.44339V12.0025ZM7.11339 10.5732C5.40778 10.5732 3.47348 11.2116 2.67308 11.7643H11.5537C10.7533 11.2116 8.819 10.5732 7.11339 10.5732ZM8.54268 3.66502C8.54268 2.87415 7.90426 2.23573 7.11339 2.23573C6.32252 2.23573 5.6841 2.87415 5.6841 3.66502C5.6841 4.45589 6.32252 5.0943 7.11339 5.0943C7.90426 5.0943 8.54268 4.45589 8.54268 3.66502ZM13.8215 8.72469C14.9268 9.52509 15.6891 10.5923 15.6891 12.0025V13.67H19.5005V12.0025C19.5005 10.0777 16.1655 8.98196 13.8215 8.72469ZM16.1655 3.66502C16.1655 5.50403 14.6695 7.00002 12.8305 7.00002C12.316 7.00002 11.8396 6.87615 11.4012 6.66652C12.0015 5.81847 12.3541 4.77986 12.3541 3.66502C12.3541 2.55017 12.0015 1.51156 11.4012 0.663517C11.8396 0.453889 12.316 0.330017 12.8305 0.330017C14.6695 0.330017 16.1655 1.826 16.1655 3.66502Z" fill="white"/>
</mask>
<g mask="url(#mask0)">
<rect x="-2" y="-5" width="24" height="24" fill="#66788A"/>
</g>
</svg>
